<svg xmlns="http://www.w3.org/2000/svg" viewBox="0 0 800 600" width="800" height="600" preserveAspectRatio="xMidYMid slice">
  <rect width="800" height="600" fill="#F59E0B"/>
  <g fill="#FAF6EE" opacity="0.15">
    <circle cx="80" cy="80" r="40"/><circle cx="720" cy="500" r="60"/>
  </g>
  <!-- clipboard -->
  <g transform="translate(220 90)">
    <rect width="360" height="430" rx="14" fill="#FAF6EE"/>
    <!-- clip -->
    <rect x="120" y="-18" width="120" height="40" rx="8" fill="#0F172A"/>
    <rect x="146" y="-10" width="68" height="22" rx="4" fill="#FAF6EE"/>
    <!-- title bar (no text — accent strip) -->
    <rect x="50" y="60" width="140" height="14" rx="4" fill="#0F172A" opacity="0.85"/>
    <rect x="50" y="86" width="80" height="6" rx="3" fill="#0F172A" opacity="0.4"/>
    <line x1="50" y1="110" x2="310" y2="110" stroke="#F59E0B" stroke-width="3"/>
    <!-- checklist items (no text — checkmark + line bars) -->
    <g transform="translate(50 150)">
      <rect width="22" height="22" rx="4" fill="#0F766E"/>
      <path d="M5 12 L10 17 L18 7" stroke="#FAF6EE" stroke-width="3" fill="none" stroke-linecap="round" stroke-linejoin="round"/>
      <rect x="38" y="7" width="220" height="10" rx="3" fill="#0F172A" opacity="0.7"/>
    </g>
    <g transform="translate(50 200)">
      <rect width="22" height="22" rx="4" fill="#0F766E"/>
      <path d="M5 12 L10 17 L18 7" stroke="#FAF6EE" stroke-width="3" fill="none" stroke-linecap="round" stroke-linejoin="round"/>
      <rect x="38" y="7" width="180" height="10" rx="3" fill="#0F172A" opacity="0.7"/>
    </g>
    <g transform="translate(50 250)">
      <rect width="22" height="22" rx="4" fill="#0F766E"/>
      <path d="M5 12 L10 17 L18 7" stroke="#FAF6EE" stroke-width="3" fill="none" stroke-linecap="round" stroke-linejoin="round"/>
      <rect x="38" y="7" width="240" height="10" rx="3" fill="#0F172A" opacity="0.7"/>
    </g>
    <g transform="translate(50 300)">
      <rect width="22" height="22" rx="4" fill="#0F766E"/>
      <path d="M5 12 L10 17 L18 7" stroke="#FAF6EE" stroke-width="3" fill="none" stroke-linecap="round" stroke-linejoin="round"/>
      <rect x="38" y="7" width="200" height="10" rx="3" fill="#0F172A" opacity="0.7"/>
    </g>
    <!-- one with cross (rejected option) -->
    <g transform="translate(50 350)">
      <rect width="22" height="22" rx="4" fill="#FAF6EE" stroke="#0F766E" stroke-width="2"/>
      <path d="M5 5 L17 17 M17 5 L5 17" stroke="#0F766E" stroke-width="2.5" fill="none" stroke-linecap="round"/>
      <rect x="38" y="7" width="160" height="10" rx="3" fill="#0F172A" opacity="0.4"/>
    </g>
    <!-- pencil at the bottom -->
    <g transform="translate(220 380) rotate(-15)">
      <rect x="0" y="-8" width="100" height="16" fill="#F59E0B" stroke="#0F172A" stroke-width="2"/>
      <rect x="100" y="-8" width="14" height="16" fill="#FAF6EE" stroke="#0F172A" stroke-width="2"/>
      <polygon points="114,-8 132,0 114,8" fill="#0F172A"/>
    </g>
  </g>
</svg>
