<svg xmlns="http://www.w3.org/2000/svg" viewBox="0 0 800 600" width="800" height="600" preserveAspectRatio="xMidYMid slice">
  <rect width="800" height="600" fill="#F59E0B"/>
  <g fill="#FAF6EE" opacity="0.15">
    <circle cx="80" cy="80" r="40"/><circle cx="720" cy="500" r="60"/>
  </g>
  <!-- checklist clipboard -->
  <g transform="translate(220 90)">
    <rect width="360" height="420" rx="14" fill="#FAF6EE"/>
    <rect x="120" y="-18" width="120" height="40" rx="8" fill="#0F172A"/>
    <rect x="146" y="-10" width="68" height="22" rx="4" fill="#FAF6EE"/>
    <!-- title -->
    <text x="180" y="80" text-anchor="middle" font-family="Georgia, serif" font-size="28" fill="#0F172A" font-weight="700">CHOOSING A TUTOR</text>
    <line x1="50" y1="100" x2="310" y2="100" stroke="#F59E0B" stroke-width="3"/>
    <!-- checklist items -->
    <g font-family="Georgia, serif" font-size="20" fill="#0F172A">
      <g transform="translate(50 150)">
        <rect width="22" height="22" rx="4" fill="#0F766E"/>
        <path d="M5 12 L10 17 L18 7" stroke="#FAF6EE" stroke-width="3" fill="none" stroke-linecap="round"/>
        <text x="38" y="18" font-weight="600">Asks about the syllabus</text>
      </g>
      <g transform="translate(50 200)">
        <rect width="22" height="22" rx="4" fill="#0F766E"/>
        <path d="M5 12 L10 17 L18 7" stroke="#FAF6EE" stroke-width="3" fill="none" stroke-linecap="round"/>
        <text x="38" y="18" font-weight="600">First chat is free</text>
      </g>
      <g transform="translate(50 250)">
        <rect width="22" height="22" rx="4" fill="#0F766E"/>
        <path d="M5 12 L10 17 L18 7" stroke="#FAF6EE" stroke-width="3" fill="none" stroke-linecap="round"/>
        <text x="38" y="18" font-weight="600">Tracks progress weekly</text>
      </g>
      <g transform="translate(50 300)">
        <rect width="22" height="22" rx="4" fill="#0F766E"/>
        <path d="M5 12 L10 17 L18 7" stroke="#FAF6EE" stroke-width="3" fill="none" stroke-linecap="round"/>
        <text x="38" y="18" font-weight="600">Honest about strengths</text>
      </g>
      <g transform="translate(50 350)">
        <rect width="22" height="22" rx="4" fill="#F59E0B" stroke="#0F766E" stroke-width="2"/>
        <text x="38" y="18" fill="#0F172A" font-weight="600" opacity="0.6">Cheapest option only?</text>
      </g>
    </g>
  </g>
</svg>
